<svg xmlns="http://www.w3.org/2000/svg" viewBox="0 0 285 32.48"><defs><style>.cls-1{fill:#e41e2d;}.cls-2{fill:none;}.cls-3{fill:#231f20;}</style></defs><g id="Layer_2" data-name="Layer 2"><g id="horizontal"><path class="cls-1" d="M285,22.84a2.22,2.22,0,1,1-2.22-2.21A2.22,2.22,0,0,1,285,22.84Z"/><path class="cls-1" d="M27.06,8.43c-1.55,3.81-6.8,5.36-12.16,3.52S6.35,5.64,7.48,1.69A14.07,14.07,0,0,0,.77,9.53a14.15,14.15,0,1,0,26.29-1.1Z"/><path class="cls-2" d="M18.75.76a14.11,14.11,0,0,0-11.27.93C6.35,5.64,9.54,10.1,14.9,12s10.61.29,12.16-3.52A14.11,14.11,0,0,0,18.75.76Z"/><path class="cls-1" d="M18.75.76c-3.57-1.23-7.22-.44-8,1.72s1.64,5,5.22,6.26,7.21.44,8-1.72S22.32,2,18.75.76Z"/><path class="cls-3" d="M49.33,18.29a6.3,6.3,0,0,1-.56,2.7,5.7,5.7,0,0,1-1.52,2A6.89,6.89,0,0,1,45,24.26a8.2,8.2,0,0,1-2.74.44H34.45V4h6.94a6.86,6.86,0,0,1,2.3.39,6.25,6.25,0,0,1,1.94,1.09A4.88,4.88,0,0,1,47,7.22a5.34,5.34,0,0,1,.49,2.29,4.35,4.35,0,0,1-.12,1,4.46,4.46,0,0,1-.34,1,5,5,0,0,1-.53.86,2.36,2.36,0,0,1-.73.61,4,4,0,0,1,1.29.71,6,6,0,0,1,1.16,1.24A7.15,7.15,0,0,1,49,16.47,5.14,5.14,0,0,1,49.33,18.29ZM42.88,9.83a1.84,1.84,0,0,0-.7-1.62,2.7,2.7,0,0,0-1.57-.48H39v4.18h1.59a2.76,2.76,0,0,0,1.57-.47A1.8,1.8,0,0,0,42.88,9.83Zm1.59,8.46a2.34,2.34,0,0,0-.94-2,3.59,3.59,0,0,0-2.11-.66H39v5.34h2.4a3.86,3.86,0,0,0,1.13-.16,3.2,3.2,0,0,0,1-.48,2.53,2.53,0,0,0,.68-.83A2.57,2.57,0,0,0,44.47,18.29Z"/><path class="cls-3" d="M61.49,24.7l-.13-1.46a4.53,4.53,0,0,1-1.73,1.35,6.39,6.39,0,0,1-2.67.5,6.29,6.29,0,0,1-2.21-.37,4.93,4.93,0,0,1-1.71-1A4.82,4.82,0,0,1,51.92,22a5.68,5.68,0,0,1-.41-2.2V10h4.77v8.74a2.07,2.07,0,0,0,.55,1.43,2.15,2.15,0,0,0,1.68.61,2.42,2.42,0,0,0,1.75-.61,2,2,0,0,0,.65-1.49V10h4.76V24.7Z"/><path class="cls-3" d="M79.92,14.72a6.89,6.89,0,0,0-3.63-1,4.21,4.21,0,0,0-2.8,1,3.23,3.23,0,0,0-1.15,2.64,3.19,3.19,0,0,0,.34,1.5,3.35,3.35,0,0,0,.9,1.14,4.38,4.38,0,0,0,1.33.73,5,5,0,0,0,1.6.26,7.8,7.8,0,0,0,1.84-.21,8.07,8.07,0,0,0,1.79-.67l-.39,4.25a7.72,7.72,0,0,1-1.76.58,11.12,11.12,0,0,1-2.32.23,8.83,8.83,0,0,1-3.08-.54A8,8,0,0,1,70,23.07a7.75,7.75,0,0,1-1.8-2.45,7.62,7.62,0,0,1-.66-3.24,7.83,7.83,0,0,1,.66-3.27A7.44,7.44,0,0,1,70,11.65a7.68,7.68,0,0,1,2.59-1.54,8.8,8.8,0,0,1,3.06-.54,11,11,0,0,1,2.62.28,7.73,7.73,0,0,1,2,.76Z"/><path class="cls-3" d="M91.25,24.7l-4.38-5.93V24.7h-4.7V7.12l4.7-1.53V16l4.44-6h5l-5,7,5.51,7.64Z"/><path class="cls-3" d="M110.76,15.4a6.41,6.41,0,0,1-.16,1.46l-1.91,1.88h-7.33a3.64,3.64,0,0,0,.46,1,3.29,3.29,0,0,0,.86.89,4.65,4.65,0,0,0,1.28.65,5.21,5.21,0,0,0,1.71.26,8.48,8.48,0,0,0,2.29-.29,8.68,8.68,0,0,0,2-.85l-.42,3.92a8.45,8.45,0,0,1-1.84.6,11.8,11.8,0,0,1-2.54.25,10,10,0,0,1-3.37-.56A8.1,8.1,0,0,1,99,23a7.38,7.38,0,0,1-1.83-2.48,7.75,7.75,0,0,1-.66-3.26,8,8,0,0,1,.61-3.2,7.36,7.36,0,0,1,1.67-2.43,7.18,7.18,0,0,1,2.43-1.54,8,8,0,0,1,2.93-.54,7.19,7.19,0,0,1,2.74.49A6.38,6.38,0,0,1,109,11.35a5.64,5.64,0,0,1,1.32,1.87A5.49,5.49,0,0,1,110.76,15.4Zm-4.34,0a2.25,2.25,0,0,0-.6-1.54,2.11,2.11,0,0,0-1.64-.66,2.86,2.86,0,0,0-1.89.69,3.3,3.3,0,0,0-1.09,1.84h5.19A1.31,1.31,0,0,0,106.42,15.37Z"/><path class="cls-3" d="M121.66,23.44a22,22,0,0,1-3.37,6.14,8.44,8.44,0,0,1-4.54,2.9l-1.94-3.08a8.79,8.79,0,0,0,1.55-.7,5.56,5.56,0,0,0,1.31-1,8.82,8.82,0,0,0,1.15-1.54A15.14,15.14,0,0,0,116.89,24L111.42,10h4.69l2.18,5.73c.17.43.32.88.47,1.34s.28,1,.43,1.51h.07c.13-.52.26-1,.4-1.47s.3-.91.47-1.35L122.34,10h4.47Z"/><path class="cls-3" d="M141.1,15.4a6.41,6.41,0,0,1-.17,1.46L139,18.74H131.7a3.91,3.91,0,0,0,.45,1,3.62,3.62,0,0,0,.86.89,4.8,4.8,0,0,0,1.28.65,5.32,5.32,0,0,0,1.72.26,7.87,7.87,0,0,0,4.24-1.14l-.42,3.92a8.35,8.35,0,0,1-1.83.6,11.8,11.8,0,0,1-2.54.25,10,10,0,0,1-3.37-.56A7.91,7.91,0,0,1,129.37,23a7.38,7.38,0,0,1-1.83-2.48,7.6,7.6,0,0,1-.67-3.26,8,8,0,0,1,.62-3.2,7.26,7.26,0,0,1,4.1-4,7.9,7.9,0,0,1,2.93-.54,7.23,7.23,0,0,1,2.74.49,6.38,6.38,0,0,1,2.07,1.29,5.61,5.61,0,0,1,1.31,1.87A5.5,5.5,0,0,1,141.1,15.4Zm-4.35,0a2.25,2.25,0,0,0-.6-1.54,2.09,2.09,0,0,0-1.63-.66,2.89,2.89,0,0,0-1.9.69,3.29,3.29,0,0,0-1.08,1.84h5.18A1.31,1.31,0,0,0,136.75,15.37Z"/><path class="cls-3" d="M143.82,24.7V5.59L147,4V24.7Z"/><path class="cls-3" d="M161.22,24.7V15.3a3.56,3.56,0,0,0-.18-1.13,2.54,2.54,0,0,0-.6-1,3,3,0,0,0-1.07-.69,4.72,4.72,0,0,0-3.09,0,3,3,0,0,0-1.1.69,2.85,2.85,0,0,0-.67,1,2.92,2.92,0,0,0-.22,1.13v9.4h-2.95V10.05h2.59l.13,1.46a5.74,5.74,0,0,1,1.83-1.38,6.48,6.48,0,0,1,2.71-.46,6.37,6.37,0,0,1,2.21.37,5.4,5.4,0,0,1,1.77,1.05,4.89,4.89,0,0,1,1.17,1.67,5.63,5.63,0,0,1,.42,2.22V24.7Z"/><path class="cls-3" d="M177.61,24.7V15.3a3.56,3.56,0,0,0-.18-1.13,2.54,2.54,0,0,0-.6-1,3,3,0,0,0-1.06-.69,4.75,4.75,0,0,0-3.1,0,3,3,0,0,0-1.77,1.68,2.92,2.92,0,0,0-.22,1.13v9.4h-3V10.05h2.59l.13,1.46a5.74,5.74,0,0,1,1.83-1.38A6.48,6.48,0,0,1,175,9.67a6.39,6.39,0,0,1,2.22.37A5.25,5.25,0,0,1,179,11.09a4.75,4.75,0,0,1,1.17,1.67,5.63,5.63,0,0,1,.42,2.22V24.7Z"/><path class="cls-3" d="M199.06,17.38a7.9,7.9,0,0,1-.6,3.13,7.18,7.18,0,0,1-1.65,2.41,7.67,7.67,0,0,1-2.46,1.57,8.55,8.55,0,0,1-6.14,0,7.65,7.65,0,0,1-2.48-1.57,7.18,7.18,0,0,1-1.65-2.41,7.9,7.9,0,0,1-.6-3.13,7.94,7.94,0,0,1,.6-3.13,7.27,7.27,0,0,1,4.13-4,8.55,8.55,0,0,1,6.14,0,7.31,7.31,0,0,1,4.11,4A7.94,7.94,0,0,1,199.06,17.38Zm-2.95,0a5.52,5.52,0,0,0-.39-2.12,4.75,4.75,0,0,0-1.06-1.61,5,5,0,0,0-1.53-1.05,4.81,4.81,0,0,0-3.7,0,4.86,4.86,0,0,0-2.61,2.66,5.34,5.34,0,0,0-.4,2.12,5.26,5.26,0,0,0,.4,2.09,4.75,4.75,0,0,0,1.06,1.61,4.7,4.7,0,0,0,1.55,1,4.69,4.69,0,0,0,3.7,0,4.94,4.94,0,0,0,1.53-1,4.75,4.75,0,0,0,1.06-1.61A5.44,5.44,0,0,0,196.11,17.38Z"/><path class="cls-3" d="M207.68,25h-1.2L200.36,10h3L206,16.51c.2.47.4,1,.62,1.53s.41,1.11.58,1.67h.07c.17-.56.36-1.12.58-1.67s.42-1.06.61-1.53L211.08,10h2.75Z"/><path class="cls-3" d="M226,25.06a2.85,2.85,0,0,1-1.31-.68,3.13,3.13,0,0,1-.83-1.2A4.26,4.26,0,0,1,222,24.64a6.18,6.18,0,0,1-2.27.42,5.14,5.14,0,0,1-2-.37,4.73,4.73,0,0,1-1.49-1,4.23,4.23,0,0,1-.94-1.44,4.69,4.69,0,0,1-.32-1.69,4.35,4.35,0,0,1,.4-1.91,4.47,4.47,0,0,1,1.07-1.42,5,5,0,0,1,1.54-.92,7,7,0,0,1,1.81-.44l3.44-.32v-.94a2.42,2.42,0,0,0-.65-1.7,2.93,2.93,0,0,0-2.2-.69,8,8,0,0,0-2.17.3,6.74,6.74,0,0,0-1.88.83l-.59-2.43A7.34,7.34,0,0,1,218,10a10.25,10.25,0,0,1,2.58-.31,7.16,7.16,0,0,1,2.27.34,5,5,0,0,1,1.78,1,4.79,4.79,0,0,1,1.17,1.67,5.8,5.8,0,0,1,.42,2.28v5.93a2.34,2.34,0,0,0,.47,1.57,1.93,1.93,0,0,0,1.18.7ZM223.23,18l-2.92.26a2.76,2.76,0,0,0-1.92.84,2.3,2.3,0,0,0-.6,1.53,1.88,1.88,0,0,0,.58,1.37,2,2,0,0,0,1.46.6A2.83,2.83,0,0,0,221,22.3a4.07,4.07,0,0,0,1.1-.69,3.22,3.22,0,0,0,.81-1.05,2.83,2.83,0,0,0,.31-1.3Z"/><path class="cls-3" d="M229.86,10v-3l2.94-1.53V10H238l-.52,2.36H232.8v8.14a1.58,1.58,0,0,0,.64,1.37,2.51,2.51,0,0,0,1.53.47,6.1,6.1,0,0,0,1.62-.19L236,24.8a4.76,4.76,0,0,1-1.33.13,6,6,0,0,1-1.88-.29,4.54,4.54,0,0,1-1.54-.86,4.1,4.1,0,0,1-1-1.39,4.68,4.68,0,0,1-.37-1.93V12.39"/><path class="cls-3" d="M240.77,24.7V10h2.95V24.7Z"/><path class="cls-3" d="M262.9,17.38a7.9,7.9,0,0,1-.6,3.13,7.18,7.18,0,0,1-1.65,2.41,7.67,7.67,0,0,1-2.46,1.57,8.09,8.09,0,0,1-3.06.57,8.19,8.19,0,0,1-3.08-.57,7.65,7.65,0,0,1-2.48-1.57,7.18,7.18,0,0,1-1.65-2.41,7.9,7.9,0,0,1-.6-3.13,7.94,7.94,0,0,1,.6-3.13,7.27,7.27,0,0,1,4.13-4,8.19,8.19,0,0,1,3.08-.57,8.09,8.09,0,0,1,3.06.57,7.31,7.31,0,0,1,4.11,4A7.94,7.94,0,0,1,262.9,17.38Zm-2.95,0a5.52,5.52,0,0,0-.39-2.12,4.75,4.75,0,0,0-1.06-1.61A5,5,0,0,0,257,12.6a4.58,4.58,0,0,0-1.84-.37,4.64,4.64,0,0,0-1.86.37,4.86,4.86,0,0,0-2.61,2.66,5.34,5.34,0,0,0-.4,2.12,5.26,5.26,0,0,0,.4,2.09,4.75,4.75,0,0,0,1.06,1.61,4.86,4.86,0,0,0,3.41,1.42,4.59,4.59,0,0,0,1.84-.38,4.94,4.94,0,0,0,1.53-1,4.75,4.75,0,0,0,1.06-1.61A5.44,5.44,0,0,0,260,17.38Z"/><path class="cls-3" d="M275.7,24.7V15.3a3.56,3.56,0,0,0-.18-1.13,2.54,2.54,0,0,0-.6-1,3,3,0,0,0-1.07-.69,4.72,4.72,0,0,0-3.09,0,3,3,0,0,0-1.1.69,2.85,2.85,0,0,0-.67,1,2.93,2.93,0,0,0-.23,1.13v9.4h-2.94V10.05h2.59l.13,1.46a5.74,5.74,0,0,1,1.83-1.38,6.46,6.46,0,0,1,2.7-.46,6.39,6.39,0,0,1,2.22.37,5.4,5.4,0,0,1,1.77,1.05,4.89,4.89,0,0,1,1.17,1.67,5.63,5.63,0,0,1,.42,2.22V24.7Z"/><path class="cls-3" d="M242.28,4.07A1.7,1.7,0,1,0,244,5.77,1.7,1.7,0,0,0,242.28,4.07Z"/></g></g></svg>