<?xml version="1.0" encoding="UTF-8"?><svg id="Layer_2" xmlns="http://www.w3.org/2000/svg" viewBox="0 0 114.6 114.6"><defs><style>.cls-1{fill:#fff;}.cls-2,.cls-3{fill:#e40c2b;}.cls-3{stroke:#fff;stroke-miterlimit:10;}</style></defs><g id="Layer_1-2"><g><g><circle class="cls-2" cx="57.3" cy="57.3" r="57.3"/><circle class="cls-3" cx="57.3" cy="57.3" r="55"/><g><path class="cls-1" d="M63.06,58.98h5.62c1.31,0,2.38,.94,2.38,2.1v1.56c0,1.15-1.07,2.1-2.39,2.1h-5.62c-2.21,0-4.01-1.3-4.01-2.88s1.8-2.88,4.01-2.88Z"/><path class="cls-1" d="M56.14,68.92c0,1.58,1.8,2.88,4.01,2.88h4.28c1.31,0,2.38-.94,2.38-2.1v-1.56c0-1.15-1.07-2.1-2.38-2.1h-4.28c-2.21,0-4.01,1.3-4.01,2.88Z"/><path class="cls-1" d="M53.23,75.98c0,1.58,1.8,2.88,4.01,2.88h2.93c1.31,0,2.38-.94,2.38-2.1v-1.56c0-1.15-1.07-2.1-2.38-2.1h-2.93c-2.21,0-4.01,1.29-4.01,2.88Z"/><path class="cls-1" d="M72.66,51.92h-2.25l-2.11,5.76h4.36c2.21,0,4.01-1.3,4.01-2.88s-1.8-2.88-4.01-2.88Z"/><path class="cls-1" d="M45.13,66.68c0-1.47-.23-2.91-.63-4.26l11.04,4.04c-.58,.7-.92,1.54-.92,2.46,0,1.07,.46,2.04,1.23,2.8-1.99,.4-3.51,1.62-3.99,3.21l-7.74-2.84h0c.65-1.66,1.02-3.48,1.02-5.41Zm4.45,4.66c1.21,.44,2.55-.18,3-1.39,.44-1.21-.18-2.55-1.39-3-1.21-.45-2.56,.18-3,1.39-.44,1.21,.18,2.55,1.39,3Zm18.86-32.44l-12.32-4.51c-2.49-.91-5.26,.4-6.19,2.94l-1.16,3.17c.84,.92,1.6,2.15,1.84,3.58l1.91-5.22,15.78,5.78-4.7,12.82h3.15l4.51-12.31c.93-2.53-.34-5.33-2.83-6.24Z"/><path class="cls-1" d="M51.74,76.51l-9.7-3.56c.99-1.82,1.57-3.97,1.57-6.27,0-1.61-.28-3.14-.79-4.54,2-5.15,5.44-13.99,6.09-15.73,1.3-3.51-2.53-5.99-2.53-5.99l-10.19,17.37c-2.67,4.63-3.93,7.02-3.78,12.56,0,0-3.7,4.28-7.31,6.53l9.85,15.69c3.98-3.69,6.19-5.26,10.3-7.36,8.58-1.19,11.65-4.84,11.65-4.84-2.72-.12-4.86-1.74-5.16-3.87Z"/><path class="cls-1" d="M77.98,39.7c0-3.39-2.75-6.14-6.14-6.14-2.25,0-4.22,1.22-5.29,3.03l2.41,.88c.13,.05,.25,.11,.38,.16,.6-.72,1.49-1.19,2.5-1.19,1.8,0,3.26,1.46,3.26,3.26,0,1.37-.85,2.54-2.05,3.02,.11,.96,0,1.97-.35,2.95l-.04,.11c3-.4,5.32-2.97,5.32-6.08Z"/><path class="cls-1" d="M83.75,39.7c0-6.56-5.34-11.9-11.91-11.9-4.74,0-8.82,2.79-10.74,6.8l2.72,1c1.5-2.91,4.53-4.91,8.02-4.91,4.98,0,9.02,4.05,9.02,9.02s-4.05,9.02-9.02,9.02c-.09,0-.17-.01-.26-.01l-.62,1.69h1.7c1.05,0,2.03,.23,2.86,.62,4.77-1.56,8.23-6.04,8.23-11.32Z"/><path class="cls-1" d="M71.84,22.03c-7.25,0-13.49,4.39-16.21,10.66,.35,.06,.69,.16,1.02,.28l1.74,.64c2.33-5.12,7.48-8.69,13.46-8.69,8.15,0,14.79,6.63,14.79,14.79,0,6.02-3.62,11.21-8.8,13.51,.23,.49,.36,1.02,.36,1.59s-.12,1.04-.33,1.52c6.79-2.47,11.65-8.98,11.65-16.61,0-9.74-7.93-17.67-17.67-17.67Z"/></g></g><g><path class="cls-1" d="M13.84,41.14l2.48,.87-.52,1.47-2.46-.87-5.21,.78,.56-1.59,2.71-.34c.34-.04,.77-.06,.97-.03v-.03c-.16-.11-.49-.37-.73-.62l-1.9-1.95,.54-1.55,3.55,3.85Z"/><path class="cls-1" d="M16.95,34.38c1.4,.69,1.91,2.15,1.18,3.62-.73,1.48-2.2,1.97-3.6,1.28-1.4-.69-1.91-2.15-1.18-3.63,.73-1.47,2.19-1.96,3.6-1.27Zm-.68,1.37c-.75-.37-1.49-.22-1.81,.44-.33,.67,0,1.35,.75,1.72,.76,.37,1.49,.22,1.82-.45,.33-.66,0-1.33-.75-1.71Z"/><path class="cls-1" d="M18.09,27.95l4.3,2.9-.65,1.04c-.33-.12-.81-.35-.95-.44v.02c.35,.55,.45,1.2-.03,1.92-.72,1.07-1.83,1.12-2.8,.46l-2.65-1.78,.85-1.26,2.43,1.63c.51,.34,1.03,.32,1.37-.18,.38-.57,.01-1.22-.49-1.56l-2.22-1.5,.84-1.25Z"/><path class="cls-1" d="M22,23.43l1.12-1.18,.83,.78-1.12,1.19,2.95,2.78-1.03,1.09-2.95-2.78-.53,.56-.83-.79,.53-.56-.28-.26c-1.03-.97-1-2.23-.12-3.16,.5-.53,.99-.7,1.04-.71l.58,1.15c-.06,.02-.34,.06-.57,.3-.38,.41-.34,.92,.09,1.32l.3,.28Z"/><path class="cls-1" d="M29.41,20.22c1.01,1.19,.89,2.73-.36,3.79-1.26,1.07-2.8,.93-3.81-.26-1.01-1.19-.89-2.73,.37-3.8,1.25-1.06,2.79-.93,3.8,.26Zm-1.17,.99c-.54-.64-1.28-.79-1.84-.31-.57,.48-.54,1.23,0,1.87,.55,.65,1.28,.79,1.85,.31,.56-.48,.54-1.22-.01-1.86Z"/><path class="cls-1" d="M33.03,14.76l2.8,4.37-1,.7c-.26-.24-.61-.64-.7-.78h-.02c.11,.66-.05,1.3-.78,1.77-1.08,.69-2.12,.3-2.75-.69l-1.72-2.69,1.28-.82,1.58,2.46c.33,.52,.82,.7,1.33,.38,.58-.37,.5-1.12,.17-1.62l-1.45-2.26,1.27-.81Z"/><path class="cls-1" d="M39.92,13.64l1.34,2.89-1.37,.63-1.23-2.65c-.26-.56-.72-.81-1.26-.55-.7,.32-.71,1.07-.46,1.62l1.13,2.44-1.37,.63-2.18-4.71,1.05-.54c.24,.26,.54,.71,.63,.91l.04-.02c-.03-.67,.22-1.33,1.06-1.72,1.17-.54,2.13,0,2.63,1.06Z"/><path class="cls-1" d="M44.84,7.27l2.25,7.43-1.16,.4c-.17-.28-.4-.8-.43-.94h-.03c-.1,.68-.5,1.25-1.35,1.51-1.35,.41-2.52-.4-2.96-1.86-.5-1.64,.23-2.88,1.5-3.26,.71-.22,1.27-.09,1.68,.23l-.93-3.07,1.44-.44Zm.11,5.55l-.1-.34c-.17-.55-.76-1.04-1.53-.81-.67,.2-.95,.86-.69,1.69,.24,.79,.84,1.18,1.53,.97,.7-.21,.97-.94,.79-1.52Z"/><path class="cls-1" d="M50.15,8.17c-.53,.08-1.01-.24-1.09-.79-.08-.53,.29-.99,.82-1.06s1.03,.25,1.1,.78c.08,.54-.3,.99-.83,1.07Zm-.65,.83l1.49-.26,.75,5.18-1.49,.22-.75-5.14Z"/><path class="cls-1" d="M56.78,13.21s-.53,.41-1.53,.47c-1.36,.09-2.12-.61-2.21-2.08l-.12-1.9-.79,.05-.07-1.14,.86-.05-.09-1.46,1.44-.15,.1,1.52,1.82-.11,.07,1.14-1.82,.11,.12,1.83c.04,.69,.33,.98,.91,.95,.53-.03,.82-.33,.82-.33l.5,1.15Z"/><path class="cls-1" d="M58.81,11.28l-1.25,.02-.07-5.1,1.62,.03-.31,5.05Zm-.36,1.02c.3,.16,.42,.55,.25,.85-.16,.31-.55,.42-.85,.25-.3-.16-.41-.54-.25-.84,.16-.3,.54-.43,.85-.26Z"/></g><g><path class="cls-1" d="M103.28,63.36l-2.61-.3,.18-1.55,2.59,.3,4.9-1.92-.19,1.67-2.56,.94c-.32,.12-.73,.23-.94,.25v.03c.19,.07,.57,.25,.85,.44l2.29,1.48-.19,1.63-4.32-2.96Z"/><path class="cls-1" d="M101.75,70.64c-1.52-.36-2.34-1.68-1.96-3.27,.38-1.61,1.7-2.41,3.22-2.05,1.52,.36,2.34,1.67,1.96,3.28-.38,1.59-1.7,2.4-3.22,2.04Zm.35-1.49c.81,.19,1.5-.12,1.67-.84,.17-.73-.3-1.31-1.11-1.51-.82-.2-1.5,.12-1.67,.85-.17,.72,.29,1.3,1.11,1.5Z"/><path class="cls-1" d="M102.07,77.17l-4.84-1.87,.4-1.15c.35,.04,.87,.16,1.02,.22v-.02c-.47-.45-.71-1.07-.4-1.88,.46-1.2,1.53-1.5,2.63-1.07l2.98,1.15-.54,1.42-2.73-1.05c-.57-.22-1.08-.08-1.29,.48-.25,.64,.26,1.2,.82,1.41l2.5,.97-.54,1.41Z"/><path class="cls-1" d="M99.27,82.45l-.83,1.4-.99-.58,.82-1.4-3.49-2.05,.76-1.29,3.49,2.05,.39-.67,.99,.58-.39,.66,.33,.2c1.22,.72,1.47,1.95,.83,3.05-.37,.63-.81,.9-.85,.93l-.82-.99c.06-.03,.32-.13,.49-.42,.28-.48,.12-.97-.38-1.27l-.35-.21Z"/><path class="cls-1" d="M92.76,87.23c-1.25-.93-1.48-2.46-.5-3.78,.99-1.32,2.52-1.53,3.77-.6,1.25,.93,1.48,2.46,.49,3.78-.98,1.31-2.51,1.53-3.76,.59Zm.92-1.22c.67,.5,1.42,.49,1.86-.1,.45-.6,.25-1.32-.42-1.82-.68-.51-1.42-.49-1.87,.11-.44,.59-.25,1.31,.43,1.81Z"/><path class="cls-1" d="M90.45,93.36l-3.7-3.64,.82-.9c.3,.18,.74,.49,.85,.61l.02-.02c-.25-.6-.24-1.26,.37-1.89,.9-.92,2-.76,2.84,.06l2.27,2.23-1.06,1.08-2.09-2.05c-.44-.43-.95-.5-1.38-.07-.48,.49-.24,1.2,.19,1.62l1.91,1.88-1.05,1.07Z"/><path class="cls-1" d="M83.98,95.99l-1.95-2.52,1.19-.92,1.79,2.31c.38,.49,.88,.63,1.36,.26,.61-.47,.46-1.2,.09-1.68l-1.64-2.12,1.19-.92,3.18,4.11-.9,.75c-.3-.2-.68-.57-.81-.75l-.04,.03c.18,.64,.08,1.34-.65,1.91-1.02,.79-2.08,.48-2.8-.45Z"/><path class="cls-1" d="M80.61,103.29l-3.85-6.74,1.04-.64c.23,.24,.57,.69,.63,.82l.03-.02c-.06-.68,.21-1.32,.98-1.76,1.22-.7,2.55-.17,3.3,1.15,.85,1.49,.41,2.85-.73,3.51-.65,.37-1.22,.37-1.69,.15l1.59,2.79-1.31,.75Zm-1.34-5.39l.17,.3c.28,.5,.98,.85,1.67,.45,.61-.35,.73-1.05,.3-1.8-.41-.72-1.08-.96-1.71-.61-.63,.36-.74,1.13-.44,1.65Z"/><path class="cls-1" d="M75.68,102.65l-1.39,.58-1.89-4.88,1.41-.54,1.87,4.84Zm-.44,.95c.5-.19,1.04,0,1.24,.52,.19,.5-.06,1.03-.57,1.22-.5,.2-1.06-.02-1.25-.52-.2-.51,.07-1.03,.58-1.22Z"/><path class="cls-1" d="M67.64,100.17s.42-.52,1.38-.8c1.31-.39,2.2,.12,2.62,1.53l.54,1.83,.76-.22,.33,1.1-.82,.24,.42,1.4-1.38,.46-.43-1.46-1.75,.52-.32-1.1,1.75-.52-.52-1.76c-.2-.66-.54-.89-1.1-.72-.5,.15-.72,.5-.72,.5l-.75-1.01Z"/><path class="cls-1" d="M66.23,101.43c-.33-.09-.53-.44-.43-.78,.09-.33,.44-.53,.78-.43,.33,.09,.52,.43,.43,.76s-.43,.54-.77,.44Zm-.12,1.07l1.21-.3,1.2,4.95-1.58,.33-.83-4.99Z"/></g></g></g></svg>