<svg width="343" height="27" viewBox="0 0 343 27" fill="none" xmlns="http://www.w3.org/2000/svg">
<g clip-path="url(#clip0_1_42)">
<path d="M343 19.5387C343.002 19.8788 342.901 20.2118 342.71 20.4954C342.519 20.779 342.247 21.0004 341.928 21.1316C341.61 21.2629 341.259 21.298 340.92 21.2326C340.581 21.1672 340.269 21.0041 340.024 20.7641C339.779 20.5241 339.612 20.218 339.544 19.8845C339.477 19.5509 339.511 19.2051 339.642 18.8906C339.774 18.5762 339.998 18.3074 340.285 18.1183C340.572 17.9291 340.91 17.8281 341.255 17.8281C341.716 17.8301 342.157 18.0108 342.484 18.3309C342.811 18.651 342.996 19.0849 343 19.5387Z" fill="#E40C2B"/>
<path d="M140.268 8.38547C139.05 11.3344 134.924 12.5341 130.711 11.1099C126.498 9.68578 123.991 6.22603 124.879 3.16101C122.967 4.16297 121.394 5.69294 120.352 7.56307C119.311 9.4332 118.846 11.5621 119.016 13.6884C119.186 15.8148 119.983 17.846 121.309 19.5327C122.634 21.2194 124.431 22.4882 126.479 23.1834C128.527 23.8785 130.736 23.9697 132.835 23.4458C134.935 22.9219 136.833 21.8057 138.298 20.2342C139.762 18.6627 140.729 16.7043 141.079 14.5995C141.429 12.4946 141.147 10.3349 140.268 8.38547Z" fill="#E40C2B"/>
<path d="M133.737 2.4489C130.931 1.49689 128.062 2.10835 127.449 3.78017C126.836 5.452 128.738 7.65014 131.552 8.61763C134.366 9.58513 137.219 8.96593 137.84 7.29411C138.461 5.62228 136.543 3.40092 133.737 2.4489Z" fill="#E40C2B"/>
<path d="M157.772 16.0093C157.784 16.7319 157.634 17.4483 157.332 18.1068C157.055 18.7039 156.647 19.2327 156.137 19.6548C155.616 20.0893 155.016 20.4229 154.368 20.6378C153.675 20.8673 152.947 20.9823 152.215 20.9783H146.077V4.97988H151.531C152.147 4.97813 152.758 5.08022 153.339 5.28174C153.892 5.4712 154.408 5.75405 154.864 6.11765C155.315 6.46833 155.682 6.9122 155.94 7.41796C156.2 7.97066 156.332 8.57354 156.326 9.18267C156.324 9.44338 156.293 9.7031 156.231 9.95666C156.175 10.2247 156.086 10.4847 155.964 10.7307C155.85 10.9669 155.711 11.1901 155.547 11.3963C155.391 11.5927 155.196 11.756 154.974 11.8762C155.343 11.996 155.687 12.1823 155.988 12.4257C156.334 12.7003 156.641 13.0207 156.899 13.3777C157.153 13.7625 157.358 14.1756 157.512 14.6084C157.684 15.0559 157.772 15.5307 157.772 16.0093ZM152.702 9.46904C152.731 9.22746 152.695 8.98265 152.599 8.75873C152.502 8.5348 152.348 8.33947 152.152 8.19196C151.792 7.93937 151.36 7.8065 150.918 7.8127H149.653V11.048H150.902C151.342 11.0561 151.773 10.9289 152.136 10.6842C152.328 10.5461 152.481 10.3619 152.58 10.1492C152.679 9.9365 152.721 9.70233 152.702 9.46904ZM153.952 16.0093C153.969 15.7111 153.911 15.4134 153.782 15.1431C153.653 14.8728 153.457 14.6385 153.213 14.4613C152.729 14.1235 152.148 13.9447 151.555 13.9505H149.653V18.0836H151.539C151.84 18.0859 152.139 18.0441 152.427 17.9598C152.711 17.8828 152.977 17.7541 153.213 17.5805C153.436 17.4094 153.618 17.1929 153.748 16.9458C153.891 16.6543 153.961 16.3331 153.952 16.0093Z" fill="#F6F4EE"/>
<path d="M167.329 20.9783L167.227 19.8483C166.865 20.2991 166.399 20.6575 165.867 20.8932C165.204 21.1688 164.488 21.3008 163.769 21.2802C163.177 21.284 162.59 21.1871 162.032 20.9938C161.519 20.8208 161.049 20.541 160.656 20.1734C160.273 19.8147 159.973 19.3792 159.776 18.8963C159.555 18.3553 159.445 17.7765 159.454 17.1935V9.61609H163.203V16.3885C163.21 16.7972 163.376 17.1877 163.666 17.4799C163.839 17.6472 164.047 17.776 164.274 17.8575C164.502 17.9389 164.745 17.9712 164.987 17.952C165.236 17.9662 165.486 17.9317 165.722 17.8507C165.958 17.7697 166.176 17.6437 166.362 17.4799C166.525 17.3336 166.654 17.1553 166.742 16.9567C166.83 16.758 166.875 16.5434 166.873 16.3266V9.61609H170.614V20.9783H167.329Z" fill="#F6F4EE"/>
<path d="M181.814 13.2538C180.956 12.7365 179.967 12.4682 178.961 12.4798C178.162 12.4583 177.381 12.7191 176.761 13.2151C176.46 13.4652 176.221 13.7805 176.065 14.1363C175.908 14.4921 175.837 14.8788 175.857 15.2662C175.848 15.6689 175.94 16.0675 176.124 16.4272C176.295 16.7662 176.536 17.0666 176.831 17.3096C177.142 17.5568 177.496 17.7457 177.877 17.8668C178.281 18.0044 178.706 18.0724 179.134 18.0681C179.621 18.0731 180.106 18.0211 180.58 17.9133C181.069 17.7959 181.541 17.6218 181.987 17.3947L181.681 20.6764C181.24 20.8831 180.776 21.0364 180.297 21.1331C179.697 21.2524 179.086 21.3095 178.474 21.3034C177.649 21.3095 176.829 21.1705 176.053 20.8931C175.305 20.6287 174.614 20.2269 174.018 19.7089C173.424 19.178 172.943 18.536 172.603 17.8204C172.246 17.0319 172.069 16.1759 172.084 15.3126C172.07 14.4421 172.247 13.5789 172.603 12.7817C172.934 12.0542 173.416 11.403 174.018 10.8699C174.612 10.3469 175.303 9.94211 176.053 9.67797C176.825 9.40503 177.638 9.26622 178.458 9.26775C179.151 9.25848 179.842 9.33124 180.517 9.48447C181.067 9.60785 181.596 9.80582 182.089 10.0727L181.814 13.2538Z" fill="#F6F4EE"/>
<path d="M190.719 20.9783L187.277 16.3885V20.9783H183.583V7.37147L187.277 6.18726V14.26L190.766 9.61605H194.696L190.766 15.034L195.097 20.9551L190.719 20.9783Z" fill="#F6F4EE"/>
<path d="M206.053 13.7801C206.055 14.1603 206.013 14.5394 205.928 14.9102L204.427 16.3653H198.665C198.745 16.6398 198.867 16.9008 199.027 17.1393C199.206 17.4089 199.435 17.6427 199.703 17.8281C200.012 18.0426 200.351 18.2121 200.709 18.3312C201.143 18.4688 201.597 18.5342 202.053 18.5247C202.661 18.5348 203.267 18.4592 203.853 18.3003C204.404 18.1529 204.932 17.9343 205.425 17.6501L205.095 20.6842C204.632 20.893 204.147 21.0488 203.648 21.1486C202.992 21.2811 202.322 21.3433 201.652 21.3343C200.751 21.343 199.855 21.199 199.003 20.9086C198.195 20.6463 197.449 20.225 196.811 19.6702C196.199 19.1401 195.709 18.4886 195.372 17.7585C195.016 16.9643 194.839 16.1034 194.853 15.2352C194.838 14.3834 195.001 13.5376 195.333 12.7507C195.629 12.0464 196.067 11.4088 196.621 10.8765C197.175 10.3443 197.833 9.92862 198.555 9.65475C199.291 9.3806 200.072 9.24156 200.858 9.24454C201.594 9.23161 202.326 9.36044 203.012 9.62379C203.627 9.85384 204.191 10.201 204.67 10.6455C205.11 11.0445 205.461 11.5292 205.7 12.0688C205.94 12.6085 206.063 13.1912 206.061 13.7801H206.053ZM202.642 13.7801C202.646 13.338 202.477 12.9114 202.171 12.5882C202.006 12.4163 201.806 12.2816 201.583 12.1934C201.361 12.1052 201.121 12.0656 200.882 12.0774C200.337 12.0723 199.809 12.2621 199.396 12.6114C198.96 12.9777 198.659 13.4756 198.54 14.0278H202.619C202.64 13.9392 202.648 13.8479 202.642 13.7569V13.7801Z" fill="#F6F4EE"/>
<path d="M214.62 20.0031C214 21.7158 213.106 23.32 211.972 24.7554C211.061 25.8648 209.809 26.6526 208.404 27L206.879 24.6161C207.3 24.4714 207.708 24.2901 208.097 24.0743C208.479 23.8701 208.826 23.609 209.127 23.3003C209.471 22.9418 209.774 22.5473 210.03 22.1238C210.357 21.5851 210.639 21.0207 210.871 20.4365L206.572 9.61609H210.258L211.972 14.0588C212.105 14.3916 212.223 14.7399 212.341 15.096C212.459 15.452 212.561 15.87 212.679 16.2647H212.734C212.836 15.8622 212.939 15.4907 213.049 15.1192C213.159 14.7477 213.284 14.4148 213.418 14.082L215.155 9.61609H218.668L214.62 20.0031Z" fill="#F6F4EE"/>
<path d="M229.9 13.7802C229.899 14.1607 229.854 14.5398 229.766 14.9102L228.249 16.3653H222.512C222.592 16.6384 222.711 16.899 222.865 17.1393C223.049 17.4055 223.277 17.6385 223.541 17.8282C223.851 18.0417 224.19 18.211 224.547 18.3313C224.984 18.4682 225.441 18.5336 225.899 18.5248C227.071 18.5448 228.225 18.2419 229.232 17.6502L228.901 20.6842C228.442 20.8931 227.959 21.049 227.463 21.1486C226.806 21.2811 226.137 21.3434 225.467 21.3344C224.566 21.3431 223.67 21.1991 222.818 20.9087C222.028 20.6463 221.3 20.2275 220.68 19.678C220.069 19.1479 219.579 18.4964 219.242 17.7663C218.879 16.9738 218.699 16.1121 218.715 15.2431C218.702 14.3907 218.868 13.5448 219.203 12.7585C219.504 12.0494 219.951 11.4091 220.515 10.8777C221.066 10.3602 221.715 9.95514 222.425 9.68578C223.16 9.41026 223.941 9.27117 224.728 9.27556C225.464 9.26343 226.195 9.39223 226.882 9.65482C227.484 9.88151 228.036 10.2205 228.509 10.6533C228.945 11.0552 229.293 11.5405 229.532 12.0795C229.771 12.6184 229.896 13.1998 229.9 13.7879V13.7802ZM226.481 13.7802C226.484 13.3381 226.316 12.9114 226.009 12.5883C225.846 12.4166 225.647 12.2819 225.426 12.1937C225.205 12.1055 224.966 12.0658 224.728 12.0774C224.181 12.0726 223.651 12.2622 223.235 12.6115C222.8 12.9782 222.502 13.4763 222.386 14.0279H226.457C226.479 13.9393 226.487 13.8479 226.481 13.757V13.7802Z" fill="#F6F4EE"/>
<path d="M232.037 20.9783V6.18729L234.537 4.97986V20.9783H232.037Z" fill="#F6F4EE"/>
<path d="M245.713 20.9783V13.7028C245.703 13.4065 245.645 13.1138 245.54 12.8359C245.446 12.5454 245.285 12.2804 245.069 12.0619C244.83 11.8267 244.544 11.6445 244.228 11.5278C243.441 11.2595 242.586 11.2595 241.799 11.5278C241.475 11.6416 241.18 11.8239 240.935 12.0619C240.705 12.28 240.526 12.5439 240.408 12.8359C240.292 13.1132 240.233 13.4105 240.235 13.7105V20.986H237.917V9.63929H239.952L240.054 10.7616C240.469 10.3268 240.969 9.97928 241.524 9.73991C242.2 9.4726 242.926 9.35119 243.654 9.38387C244.246 9.37751 244.834 9.47447 245.391 9.67025C245.903 9.85082 246.376 10.1267 246.782 10.4829C247.178 10.8454 247.491 11.2858 247.702 11.7755C247.929 12.3204 248.041 12.9049 248.032 13.4938V21.017L245.713 20.9783Z" fill="#F6F4EE"/>
<path d="M258.595 20.9783V13.7027C258.596 13.4056 258.549 13.1102 258.454 12.8281C258.36 12.5376 258.198 12.2726 257.982 12.0541C257.746 11.8198 257.462 11.6377 257.149 11.5201C256.36 11.2517 255.502 11.2517 254.713 11.5201C254.4 11.6304 254.114 11.8047 253.874 12.0315C253.634 12.2582 253.446 12.5323 253.321 12.8358C253.205 13.1132 253.147 13.4105 253.149 13.7105V20.986H250.791V9.63925H252.826L252.928 10.7615C253.346 10.3259 253.848 9.97833 254.406 9.73987C255.082 9.45823 255.811 9.32358 256.544 9.34513C257.138 9.33818 257.729 9.43514 258.289 9.63151C258.805 9.80845 259.281 10.0847 259.688 10.4442C260.086 10.8044 260.399 11.2454 260.607 11.7368C260.834 12.2817 260.946 12.8662 260.937 13.455V20.9783H258.595Z" fill="#F6F4EE"/>
<path d="M275.454 15.3127C275.465 16.1408 275.304 16.9624 274.983 17.7276C274.685 18.4326 274.243 19.0701 273.686 19.6006C273.126 20.1238 272.47 20.5363 271.752 20.8158C270.199 21.4042 268.48 21.4042 266.926 20.8158C266.203 20.5384 265.541 20.1258 264.977 19.6006C264.42 19.0701 263.978 18.4326 263.68 17.7276C263.359 16.9624 263.198 16.1408 263.209 15.3127C263.197 14.482 263.358 13.6577 263.68 12.8901C263.98 12.1838 264.421 11.5442 264.977 11.0093C265.538 10.4768 266.201 10.0587 266.926 9.77863C268.482 9.20107 270.197 9.20107 271.752 9.77863C272.472 10.0606 273.129 10.4787 273.686 11.0093C274.242 11.5442 274.683 12.1838 274.983 12.8901C275.305 13.6577 275.466 14.482 275.454 15.3127ZM273.136 15.3127C273.144 14.7512 273.04 14.1936 272.829 13.6718C272.639 13.2035 272.356 12.7772 271.996 12.418C271.645 12.091 271.238 11.8288 270.793 11.644C270.333 11.4549 269.838 11.3576 269.339 11.3576C268.84 11.3576 268.346 11.4549 267.885 11.644C267.421 11.8344 267 12.1147 266.648 12.4684C266.295 12.8221 266.018 13.2418 265.834 13.7028C265.617 14.223 265.51 14.7813 265.52 15.3436C265.511 15.8958 265.618 16.4438 265.834 16.9536C266.018 17.4145 266.295 17.8343 266.648 18.1879C267 18.5416 267.421 18.822 267.885 19.0124C268.345 19.2066 268.839 19.3067 269.339 19.3067C269.839 19.3067 270.334 19.2066 270.793 19.0124C271.238 18.8275 271.645 18.5653 271.996 18.2384C272.356 17.8792 272.639 17.4529 272.829 16.9845C273.047 16.4538 273.151 15.8848 273.136 15.3127Z" fill="#F6F4EE"/>
<path d="M282.229 21.1796H281.286L276.476 9.61609H278.834L280.909 14.6316C281.066 15.0031 281.223 15.4056 281.396 15.8235C281.569 16.2415 281.718 16.6827 281.852 17.1161H281.907C282.041 16.6827 282.19 16.2492 282.363 15.8235C282.536 15.3978 282.693 15.0031 282.842 14.6316L284.909 9.61609H287.071L282.229 21.1796Z" fill="#F6F4EE"/>
<path d="M296.628 21.257C296.244 21.1736 295.889 20.9921 295.599 20.7306C295.31 20.476 295.086 20.1577 294.946 19.8019C294.576 20.3046 294.07 20.6937 293.484 20.9241C292.917 21.1479 292.311 21.2609 291.7 21.257C291.161 21.2661 290.626 21.166 290.128 20.9628C289.69 20.784 289.291 20.5208 288.957 20.1889C288.636 19.8711 288.384 19.4917 288.218 19.0743C288.053 18.6548 287.967 18.2086 287.967 17.7585C287.957 17.2511 288.064 16.7482 288.281 16.2879C288.482 15.8686 288.768 15.4944 289.122 15.1889C289.48 14.8814 289.89 14.6378 290.333 14.469C290.79 14.2963 291.268 14.1843 291.755 14.1362L294.459 13.8808V13.161C294.47 12.6735 294.286 12.2012 293.948 11.8452C293.711 11.6457 293.436 11.4954 293.139 11.4036C292.842 11.3118 292.529 11.2804 292.219 11.3111C291.642 11.3112 291.068 11.3893 290.513 11.5433C289.989 11.6785 289.49 11.8953 289.036 12.1858L288.572 10.305C289.108 9.95652 289.697 9.69519 290.317 9.53096C290.981 9.37298 291.662 9.29501 292.345 9.29876C292.95 9.29142 293.552 9.38028 294.129 9.56192C294.647 9.71561 295.125 9.97987 295.528 10.3359C295.925 10.6968 296.239 11.1376 296.447 11.6285C296.677 12.1888 296.789 12.7891 296.777 13.3932V17.983C296.749 18.4186 296.88 18.8499 297.147 19.1981C297.378 19.4845 297.708 19.6773 298.074 19.7399L296.628 21.257ZM294.49 15.7616L292.195 15.9628C291.625 15.9758 291.083 16.2093 290.686 16.613C290.386 16.9371 290.218 17.3588 290.215 17.7972C290.215 17.995 290.255 18.1908 290.333 18.3729C290.412 18.555 290.526 18.7199 290.671 18.8576C290.82 19.0076 290.998 19.1261 291.196 19.206C291.393 19.2858 291.605 19.3253 291.818 19.322C292.138 19.3214 292.455 19.2528 292.745 19.1207C293.061 18.9894 293.353 18.8091 293.61 18.5867C293.876 18.3577 294.092 18.0788 294.247 17.7663C294.408 17.4576 294.492 17.1151 294.49 16.7678V15.7616Z" fill="#F6F4EE"/>
<path d="M299.662 9.61613V7.29415L301.973 6.11768V9.60065H306.06L305.651 11.435H301.973V17.7353C301.96 17.9394 301.999 18.1434 302.087 18.3286C302.175 18.5139 302.309 18.6744 302.476 18.7957C302.825 19.0429 303.248 19.1707 303.678 19.1595C304.108 19.1686 304.537 19.1165 304.951 19.0047L304.488 21.0558C304.145 21.1336 303.794 21.1674 303.442 21.1564C302.94 21.1605 302.441 21.082 301.965 20.9242C301.521 20.7851 301.11 20.5615 300.754 20.2663C300.418 19.9633 300.15 19.5941 299.968 19.1827C299.764 18.7136 299.665 18.2068 299.678 17.6966V11.4505" fill="#F6F4EE"/>
<path d="M308.237 20.9783V9.61609H310.555V20.9783H308.237Z" fill="#F6F4EE"/>
<path d="M325.63 15.3127C325.641 16.1408 325.48 16.9624 325.159 17.7275C324.861 18.4326 324.419 19.07 323.862 19.6006C323.302 20.1238 322.646 20.5363 321.928 20.8158C321.163 21.1147 320.346 21.2646 319.523 21.2569C318.695 21.2646 317.873 21.1148 317.102 20.8158C316.379 20.5384 315.717 20.1258 315.153 19.6006C314.596 19.07 314.154 18.4326 313.856 17.7275C313.535 16.9624 313.374 16.1408 313.385 15.3127C313.373 14.482 313.534 13.6577 313.856 12.8901C314.156 12.1838 314.597 11.5442 315.153 11.0093C315.715 10.4768 316.377 10.0586 317.102 9.77861C317.875 9.48585 318.696 9.33881 319.523 9.34517C320.346 9.33872 321.162 9.48579 321.928 9.77861C322.648 10.0606 323.305 10.4787 323.862 11.0093C324.418 11.5442 324.859 12.1838 325.159 12.8901C325.481 13.6577 325.642 14.482 325.63 15.3127ZM323.312 15.3127C323.32 14.7512 323.216 14.1936 323.005 13.6718C322.815 13.2034 322.532 12.7772 322.172 12.4179C321.821 12.091 321.414 11.8288 320.969 11.6439C320.513 11.4512 320.02 11.3537 319.523 11.3576C319.021 11.3529 318.523 11.4504 318.061 11.6439C317.597 11.8344 317.176 12.1147 316.824 12.4684C316.471 12.822 316.194 13.2418 316.01 13.7028C315.793 14.223 315.686 14.7813 315.696 15.3436C315.687 15.8958 315.794 16.4438 316.01 16.9535C316.194 17.4145 316.471 17.8343 316.824 18.1879C317.176 18.5416 317.597 18.8219 318.061 19.0124C318.523 19.2084 319.021 19.3085 319.523 19.3065C320.021 19.3077 320.513 19.2075 320.969 19.0124C321.414 18.8275 321.821 18.5653 322.172 18.2384C322.532 17.8791 322.815 17.4529 323.005 16.9845C323.236 16.4566 323.354 15.8875 323.351 15.3127H323.312Z" fill="#F6F4EE"/>
<path d="M335.691 20.9784V13.7028C335.692 13.4057 335.644 13.1103 335.549 12.8282C335.455 12.5377 335.294 12.2727 335.078 12.0542C334.839 11.819 334.552 11.6369 334.237 11.5202C333.45 11.2518 332.595 11.2518 331.808 11.5202C331.484 11.6339 331.188 11.8162 330.943 12.0542C330.714 12.2724 330.534 12.5362 330.417 12.8282C330.298 13.1051 330.237 13.4024 330.236 13.7028V20.9784H327.925V9.63935H329.961L330.063 10.7616C330.469 10.3303 330.958 9.98293 331.501 9.73997C332.175 9.47329 332.898 9.35188 333.623 9.38394C334.218 9.37698 334.808 9.47395 335.368 9.67031C335.881 9.85088 336.353 10.1268 336.759 10.483C337.155 10.8454 337.468 11.2859 337.679 11.7756C337.906 12.3205 338.018 12.905 338.009 13.4938V21.0171L335.691 20.9784Z" fill="#F6F4EE"/>
<path d="M309.424 5.01083C309.16 5.01389 308.903 5.09385 308.685 5.24062C308.467 5.38739 308.298 5.5944 308.2 5.83553C308.101 6.07666 308.077 6.34111 308.131 6.59553C308.185 6.84994 308.315 7.08292 308.503 7.26508C308.691 7.44723 308.93 7.57041 309.189 7.61906C309.448 7.66771 309.717 7.63966 309.96 7.53844C310.203 7.43723 310.41 7.26739 310.555 7.05035C310.7 6.8333 310.777 6.57878 310.775 6.31888C310.775 6.14513 310.74 5.97312 310.672 5.81288C310.604 5.65265 310.504 5.50741 310.378 5.38564C310.252 5.26387 310.103 5.168 309.939 5.10365C309.775 5.0393 309.6 5.00774 309.424 5.01083Z" fill="#F6F4EE"/>
</g>
<path d="M6.06 6.8C9.46 6.8 11.48 8.38 11.48 11.4C11.48 14.44 9.42 16.02 6.38 16.02H4V20H1.48V6.8H6.06ZM5.92 14C7.84 14 8.94 13.08 8.94 11.4C8.94 9.8 7.86 8.82 5.82 8.82H4V14H5.92ZM17.4755 10.44C20.4555 10.44 22.4155 12.46 22.4155 15.3C22.4155 18.14 20.4555 20.12 17.4755 20.12C14.5155 20.12 12.5355 18.14 12.5355 15.3C12.5355 12.46 14.5155 10.44 17.4755 10.44ZM17.4755 18.12C18.9755 18.12 19.9355 16.96 19.9355 15.3C19.9355 13.62 18.9755 12.44 17.4755 12.44C15.9755 12.44 15.0155 13.62 15.0155 15.3C15.0155 16.96 15.9755 18.12 17.4755 18.12ZM35.5106 10.56H37.9906L35.2106 20H32.3906L30.8506 14.66C30.7706 14.38 30.6906 13.92 30.6706 13.72H30.6106C30.5906 13.92 30.5106 14.38 30.4506 14.66L28.8506 20H26.0706L23.1706 10.56H25.7506L27.2706 16.46C27.3906 17 27.4906 17.34 27.5306 17.66H27.5906C27.6506 17.34 27.7506 16.94 27.8706 16.46L29.5306 10.56H31.7706L33.4106 16.42C33.5306 16.9 33.6506 17.42 33.6906 17.66H33.7506C33.7906 17.42 33.8706 16.94 34.0106 16.42L35.5106 10.56ZM44.125 18.22C45.485 18.22 46.225 17.58 46.625 17.1L47.865 18.44C47.145 19.38 45.765 20.12 43.865 20.12C40.725 20.12 38.825 18.14 38.825 15.3C38.825 12.46 40.705 10.44 43.605 10.44C46.365 10.44 47.945 12.34 47.945 14.88C47.945 15.48 47.845 15.86 47.845 15.86H41.285C41.505 17.26 42.465 18.22 44.125 18.22ZM43.605 12.34C42.385 12.34 41.505 13.16 41.285 14.48H45.645C45.625 13.24 44.845 12.34 43.605 12.34ZM54.6323 10.44C55.1323 10.44 55.5723 10.52 55.9723 10.68L55.3523 13.06C55.0723 12.86 54.7523 12.76 54.3323 12.76C53.2723 12.76 52.2923 13.62 52.2923 15.32V20H49.8523V10.56L51.7323 10.48C51.9123 11.14 52.0323 12.2 52.0323 12.6H52.0923C52.4523 11.4 53.2323 10.44 54.6323 10.44ZM61.7617 18.22C63.1217 18.22 63.8617 17.58 64.2617 17.1L65.5017 18.44C64.7817 19.38 63.4017 20.12 61.5017 20.12C58.3617 20.12 56.4617 18.14 56.4617 15.3C56.4617 12.46 58.3417 10.44 61.2417 10.44C64.0017 10.44 65.5817 12.34 65.5817 14.88C65.5817 15.48 65.4817 15.86 65.4817 15.86H58.9217C59.1417 17.26 60.1017 18.22 61.7617 18.22ZM61.2417 12.34C60.0217 12.34 59.1417 13.16 58.9217 14.48H63.2817C63.2617 13.24 62.4817 12.34 61.2417 12.34ZM74.3491 5.88H76.7891V20L74.8491 20.08C74.7091 19.46 74.5891 18.4 74.6091 18.1H74.5491C74.0291 19.26 72.9691 20.12 71.2891 20.12C68.7091 20.12 67.0091 18.12 67.0091 15.3C67.0091 12.26 68.9091 10.44 71.4091 10.44C72.8291 10.44 73.7891 11.02 74.3491 11.82V5.88ZM71.9091 18.08C73.4491 18.08 74.3491 16.76 74.3491 15.56V15C74.3491 13.84 73.5091 12.48 71.8291 12.48C70.4091 12.48 69.4691 13.58 69.4691 15.3C69.4691 16.96 70.4091 18.08 71.9091 18.08ZM88.907 10.44C91.347 10.44 93.187 12.26 93.187 15.3C93.187 18.24 91.347 20.12 88.767 20.12C87.107 20.12 86.027 19.26 85.507 18.1H85.487C85.487 18.48 85.387 19.4 85.247 20H83.407V5.88H85.847V12.02C86.387 11.14 87.347 10.44 88.907 10.44ZM88.367 18.08C89.787 18.08 90.707 16.98 90.707 15.3C90.707 13.58 89.787 12.48 88.287 12.48C86.687 12.48 85.847 13.86 85.847 15.02V15.56C85.847 16.78 86.707 18.08 88.367 18.08ZM99.7133 21.38C99.1133 22.96 98.0533 24.18 96.0933 24.18C95.0733 24.18 94.4133 23.84 94.4133 23.84L94.7933 21.94C94.7933 21.94 95.2933 22.2 95.8933 22.2C96.7933 22.2 97.2333 21.72 97.5533 20.98L97.8133 20.36L93.8733 10.56H96.5133L98.6533 16.46C98.8333 16.96 98.8733 17.18 98.9533 17.66H98.9933C99.0933 17.16 99.1533 16.92 99.3133 16.46L101.413 10.56H103.873L99.7133 21.38Z" fill="white"/>
<defs>
<clipPath id="clip0_1_42">
<rect width="224" height="25" fill="white" transform="translate(119 2)"/>
</clipPath>
</defs>
</svg>
